<svg xmlns="http://www.w3.org/2000/svg"><symbol viewBox="0 0 512 512"><path fill="#d0422a" d="M0 0h512v512H0z"/><g fill="#fff"><path d="M266.66 284.363l-18.76-14.568c-5.712-4.739-13.528-10.993-13.528-22.44 0-11.495 7.816-18.804 14.594-25.57 21.854-17.201 43.685-35.504 43.685-74.082 0-39.666-24.959-60.53-36.922-70.434h32.254L321.835 56H219.274c-28.143 0-68.7 6.66-98.392 31.173-22.385 19.304-33.297 45.928-33.297 69.896 0 40.68 31.241 81.922 86.398 81.922 5.214 0 10.91-.512 16.644-1.045-2.577 6.268-5.182 11.486-5.182 20.346 0 16.155 8.305 26.067 15.624 35.447-23.435 1.616-67.19 4.208-99.449 24.034-30.714 18.269-40.067 44.855-40.067 63.623 0 38.627 36.411 74.604 111.901 74.604 89.53 0 136.919-49.533 136.919-98.574.015-36.033-20.802-53.764-43.713-73.063zm-68.188-59.99c-44.786 0-65.077-57.895-65.077-92.832 0-13.603 2.573-27.643 11.434-38.612 8.351-10.445 22.892-17.224 36.468-17.224 43.175 0 65.568 58.418 65.568 95.988 0 9.4-1.036 26.057-13.006 38.103-8.375 8.35-22.384 14.578-35.387 14.578zm.509 209.769c-55.691 0-91.605-26.642-91.605-63.684 0-37.034 33.297-49.562 44.76-53.708 21.847-7.355 49.967-8.38 54.658-8.38 5.205 0 7.81 0 11.951.524 39.596 28.173 56.783 42.22 56.783 68.895 0 32.296-26.562 56.353-76.547 56.353zM398.118 302.102v-52.475h52.33V223.58h-52.33v-52.16h-25.764v52.16h-52.071v26.047h52.071v52.475z"/></g></symbol><symbol viewBox="0 0 512 512"><rect height="512" rx="64" ry="64" width="512" fill="#4ea23b"/><path d="M256.145 56c-8.729 0-17.465.416-23.696 1.285C157.57 67.73 97.796 127.11 86.472 202.298c-5.932 39.386 2.412 81.064 23 114.811 13.312 21.822 32.447 41.64 53.282 55.184 25.446 16.54 52.747 25.479 84.608 27.712l8.354.589v27.176c0 14.945.248 27.425.562 27.74 1.127 1.126 3.008.497 11.648-3.83 34.213-17.135 65.304-39.663 91.088-66 38.354-39.177 60.046-82.337 67.339-133.955 1.564-11.067 1.326-38.182-.428-49.132-12.236-76.388-70.964-134.83-146.085-145.308C273.61 56.416 264.873 56 256.145 56zm-81.29 121.639h55.88c5.563 0 10.04 4.478 10.04 10.04v64.983c0 .763.023 1.294-.106 2.035-.542 10.492-1.891 14.407-5.007 20.884-7.152 14.866-21.785 25.763-37.914 28.248-2.918.45-3.867.229-5.355-1.258-1.619-1.62-1.82-2.795-1.82-11.192 0-10.692.09-10.81 8.113-13.415 4.2-1.364 9.16-4.466 11.432-7.149 2.51-2.962 5.293-10.058 5.302-13.52v-3.642c-13.283.115-27.135-.115-40.564 0-5.563 0-10.04-4.505-10.04-10.068V187.68c0-5.562 4.477-10.04 10.04-10.04zm106.431 0h55.88c5.562 0 10.04 4.478 10.04 10.04v64.983c0 .763.023 1.294-.107 2.035-.542 10.492-1.89 14.407-5.007 20.884-7.151 14.866-21.785 25.763-37.913 28.248-2.918.45-3.868.229-5.355-1.258-1.62-1.62-1.82-2.795-1.82-11.192 0-10.692.09-10.81 8.112-13.415 4.201-1.364 9.161-4.466 11.433-7.149 2.509-2.962 5.293-10.058 5.301-13.52v-3.642c-13.282.115-27.135-.115-40.564 0-5.562 0-10.04-4.505-10.04-10.068V187.68c0-5.562 4.478-10.04 10.04-10.04z" fill="#fff"/></symbol></svg>